<svg width="16" height="20" viewBox="0 0 16 20" fill="none" xmlns="http://www.w3.org/2000/svg">
<path d="M12.1449 0H7.48594C5.47622 0 3.84142 1.61155 3.84142 3.5926V6.64907H2.90714C1.30422 6.64907 0 7.93439 0 9.51449V12.2685C0 13.6341 1.12713 14.7452 2.51277 14.7452H13.277C14.6623 14.7452 15.7895 13.6341 15.7895 12.2685V3.5926C15.7894 1.61151 14.1546 0 12.1449 0ZM15.1555 12.2685C15.1555 13.2896 14.3128 14.1202 13.277 14.1202H2.51273C1.47693 14.1202 0.633983 13.2896 0.633983 12.2685V9.51449C0.633983 8.27921 1.6537 7.27402 2.90714 7.27402H3.84142V11.0641C3.84142 11.2368 3.98321 11.3766 4.15843 11.3766C4.33365 11.3766 4.47545 11.2368 4.47545 11.0641C4.47545 9.18854 4.47545 5.50327 4.47545 3.5926C4.47545 1.95633 5.82607 0.624952 7.48598 0.624952H12.145C13.8049 0.624952 15.1555 1.95633 15.1555 3.5926V12.2685H15.1555ZM13.5249 15.6817V18.4565C13.5249 19.3076 12.8226 20 11.9592 20H4.48098C3.61944 20 2.91829 19.3076 2.91829 18.4565V15.6817C2.91829 15.509 3.06008 15.3692 3.2353 15.3692C3.41052 15.3692 3.55231 15.509 3.55231 15.6817V18.4565C3.55231 18.9631 3.96897 19.375 4.48102 19.375H11.9592C12.4731 19.375 12.891 18.9631 12.891 18.4565V15.6817C12.891 15.509 13.0328 15.3692 13.2081 15.3692C13.3832 15.3692 13.5249 15.509 13.5249 15.6817ZM10.429 18.1724C11.0515 18.1724 11.558 17.6732 11.558 17.0595C11.558 16.4458 11.0515 15.9465 10.429 15.9465H6.01394C5.39142 15.9465 4.88494 16.4458 4.88494 17.0595C4.88494 17.6731 5.39138 18.1724 6.01394 18.1724H10.429ZM5.51896 17.0595C5.51896 16.7903 5.7409 16.5715 6.01398 16.5715H10.429C10.7021 16.5715 10.924 16.7903 10.924 17.0595C10.924 17.3286 10.7021 17.5475 10.429 17.5475H6.01394C5.7409 17.5474 5.51896 17.3286 5.51896 17.0595Z" fill="white"/>
</svg>
