<svg width="20" height="20" viewBox="0 0 20 20" fill="none" xmlns="http://www.w3.org/2000/svg">
<path d="M10 20C15.5121 20 19.9966 15.5139 19.9966 10C19.9966 4.48607 15.5121 0 10 0C4.48607 0 0 4.48607 0 10C0 15.5139 4.48607 20 10 20ZM10 0.62499C15.1676 0.62499 19.3716 4.8306 19.3716 10C19.3716 15.1694 15.1675 19.375 10 19.375C4.83064 19.375 0.62499 15.1694 0.62499 10C0.62499 4.83064 4.83064 0.62499 10 0.62499ZM1.24876 10.0012C1.24876 9.82848 1.38854 9.6887 1.56128 9.6887H5.32111C5.25959 7.80373 4.65061 6.01 3.537 4.48576C3.43539 4.34629 3.46559 4.151 3.60506 4.04904C3.74453 3.94708 3.93982 3.97764 4.04178 4.11711C5.23382 5.74908 5.88431 7.67007 5.9461 9.6887H9.68325V1.56371C9.68325 1.39098 9.82303 1.2512 9.99576 1.2512C10.1685 1.2512 10.3083 1.39098 10.3083 1.56371V9.6887H14.0485C14.1103 7.66865 14.7618 5.74739 15.9562 4.11679C16.0578 3.97732 16.254 3.94712 16.3929 4.04935C16.5321 4.15128 16.5623 4.34688 16.4603 4.48607C15.345 6.00894 14.7351 7.80239 14.6735 9.6887H18.4333C18.606 9.6887 18.7458 9.82848 18.7458 10.0012C18.7458 10.174 18.606 10.3137 18.4333 10.3137H14.6735C14.7351 12.2004 15.3449 13.9938 16.4603 15.5167C16.5623 15.6558 16.5321 15.8514 16.3929 15.9534C16.2545 16.0553 16.0579 16.0253 15.9562 15.886C14.7618 14.2554 14.1103 12.3341 14.0485 10.3138H10.3082V18.4388C10.3082 18.6115 10.1685 18.7513 9.99572 18.7513C9.82299 18.7513 9.68321 18.6115 9.68321 18.4388V10.3137H5.94606C5.88427 12.3324 5.23378 14.2537 4.04174 15.8856C3.93907 16.0256 3.74366 16.055 3.60502 15.9537C3.46556 15.8518 3.43535 15.6565 3.53696 15.517C4.65057 13.9927 5.25951 12.199 5.32107 10.3137H1.56128C1.38854 10.3137 1.24876 10.174 1.24876 10.0012Z" fill="white"/>
</svg>
