<svg width="14" height="19" viewBox="0 0 14 19" fill="none" xmlns="http://www.w3.org/2000/svg">
<path d="M13.9082 4.1977L9.57552 0.0869569C9.51885 0.0332329 9.42092 0 9.35411 0H1.98869C0.892048 0 0 0.845687 0 1.88533V17.1147C0 18.1543 0.892048 19 1.98869 19H12.0113C13.108 19 14 18.1543 14 17.1147V4.4076C14 4.34881 13.9677 4.25403 13.9082 4.1977ZM12.9312 4.1107H10.6067C10.0887 4.1107 9.66728 3.7112 9.66728 3.22009V1.01412L12.9312 4.1107ZM12.0113 18.4062H1.98865C1.23757 18.4062 0.626269 17.827 0.626269 17.1147V1.88533C0.626269 1.17302 1.23757 0.593758 1.98865 0.593758H9.04093V3.22012C9.04093 4.03858 9.74337 4.7045 10.6067 4.7045H13.3737V17.1147C13.3737 17.827 12.7624 18.4062 12.0113 18.4062ZM5.25015 6.86955C5.25015 6.70548 5.39021 6.57269 5.56329 6.57269H8.43667C8.60975 6.57269 8.74981 6.70548 8.74981 6.86955C8.74981 7.03363 8.60975 7.16642 8.43667 7.16642H5.56329C5.39021 7.16645 5.25015 7.03367 5.25015 6.86955ZM11.6807 9.27037C11.6807 9.43445 11.5407 9.56723 11.3676 9.56723H2.63241C2.45933 9.56723 2.31927 9.43445 2.31927 9.27037C2.31927 9.10629 2.45933 8.97351 2.63241 8.97351H11.3676C11.5407 8.97351 11.6807 9.10629 11.6807 9.27037ZM11.6807 11.6712C11.6807 11.8353 11.5407 11.968 11.3676 11.968H2.63241C2.45933 11.968 2.31927 11.8353 2.31927 11.6712C2.31927 11.5071 2.45933 11.3743 2.63241 11.3743H11.3676C11.5407 11.3743 11.6807 11.5071 11.6807 11.6712ZM11.6807 14.0717C11.6807 14.2357 11.5407 14.3685 11.3676 14.3685H2.63241C2.45933 14.3685 2.31927 14.2357 2.31927 14.0717C2.31927 13.9076 2.45933 13.7748 2.63241 13.7748H11.3676C11.5407 13.7748 11.6807 13.9076 11.6807 14.0717ZM11.6807 16.4725C11.6807 16.6366 11.5407 16.7693 11.3676 16.7693H2.63241C2.45933 16.7693 2.31927 16.6366 2.31927 16.4725C2.31927 16.3084 2.45933 16.1756 2.63241 16.1756H11.3676C11.5407 16.1756 11.6807 16.3084 11.6807 16.4725Z" fill="white"/>
</svg>
