<svg width="14" height="19" viewBox="0 0 14 19" fill="none" xmlns="http://www.w3.org/2000/svg">
<path d="M1.0627 19H10.4413C11.0289 19 11.5069 18.5205 11.5069 17.9314V16.497H12.937C13.5231 16.497 14 16.0187 14 15.4305V3.4521C14 3.39379 13.9691 3.29802 13.9133 3.24222L10.7647 0.0869552C10.7116 0.0336914 10.6202 0 10.5555 0H3.55606C2.96993 0 2.49306 0.478328 2.49306 1.06625V2.50067H1.0627C0.476574 2.50067 0 2.98016 0 3.56953V17.9314C0 18.5205 0.476574 19 1.0627 19ZM12.989 3.15526H11.3228C11.063 3.15526 10.8514 2.94307 10.8514 2.68242V1.01317L12.989 3.15526ZM3.08496 1.06625C3.08496 0.805642 3.29625 0.593708 3.55606 0.593708H10.2595V2.68242C10.2595 3.27064 10.7364 3.74897 11.3228 3.74897H13.4081V15.4305C13.4081 15.6911 13.1968 15.9033 12.937 15.9033H3.55606C3.29625 15.9033 3.08496 15.6911 3.08496 15.4305V1.06625ZM0.591901 3.56953C0.591901 3.30747 0.803191 3.09438 1.0627 3.09438H2.49306V15.4305C2.49306 16.0187 2.96993 16.497 3.55606 16.497H10.915V17.9314C10.915 18.1932 10.7026 18.4063 10.4413 18.4063H1.0627C0.803153 18.4063 0.591901 18.1932 0.591901 17.9314V3.56953ZM4.51331 13.6363C4.51331 13.4722 4.64569 13.3394 4.80928 13.3394H11.6836C11.8471 13.3394 11.9795 13.4722 11.9795 13.6363C11.9795 13.8004 11.8471 13.9331 11.6836 13.9331H4.80924C4.64565 13.9331 4.51331 13.8004 4.51331 13.6363ZM4.51331 11.4812C4.51331 11.3171 4.64569 11.1843 4.80928 11.1843H11.6836C11.8471 11.1843 11.9795 11.3171 11.9795 11.4812C11.9795 11.6453 11.8471 11.7781 11.6836 11.7781H4.80924C4.64565 11.778 4.51331 11.6453 4.51331 11.4812ZM4.51331 9.32605C4.51331 9.16197 4.64569 9.02918 4.80928 9.02918H11.6836C11.8471 9.02918 11.9795 9.16197 11.9795 9.32605C11.9795 9.49014 11.8471 9.62292 11.6836 9.62292H4.80924C4.64565 9.62292 4.51331 9.49014 4.51331 9.32605ZM4.51331 7.17096C4.51331 7.00687 4.64569 6.87409 4.80928 6.87409H11.6836C11.8471 6.87409 11.9795 7.00687 11.9795 7.17096C11.9795 7.33505 11.8471 7.46783 11.6836 7.46783H4.80924C4.64565 7.4678 4.51331 7.33501 4.51331 7.17096ZM4.51331 5.01583C4.51331 4.85175 4.64569 4.71896 4.80928 4.71896H11.6836C11.8471 4.71896 11.9795 4.85175 11.9795 5.01583C11.9795 5.17992 11.8471 5.31271 11.6836 5.31271H4.80924C4.64565 5.31271 4.51331 5.17992 4.51331 5.01583ZM4.51331 2.8607C4.51331 2.69662 4.64569 2.56383 4.80928 2.56383H8.24655C8.41014 2.56383 8.54252 2.69662 8.54252 2.8607C8.54252 3.02479 8.41014 3.15758 8.24655 3.15758H4.80928C4.64565 3.15758 4.51331 3.02479 4.51331 2.8607Z" fill="white"/>
</svg>
