<svg width="20" height="20" viewBox="0 0 20 20" fill="none" xmlns="http://www.w3.org/2000/svg">
<path d="M12.2309 19.7475C16.7421 18.717 20 14.6891 20 9.9997C20 5.33029 16.7679 1.29002 12.23 0.251626C5.88603 -1.17367 0 3.64182 0 9.9997C0 16.3388 5.87226 21.1786 12.2309 19.7475ZM0.625086 9.9997C0.625086 4.02966 6.15257 -0.474844 12.0917 0.860841C16.3105 1.82617 19.3749 5.58947 19.3749 9.9997C19.3749 14.4044 16.3115 18.1748 12.0926 19.1382C6.16395 20.4716 0.625086 15.9784 0.625086 9.9997ZM7.16904 12.3132L7.73594 13.296L6.00982 16.2796H4.73705C4.56429 16.2796 4.42449 16.4193 4.42449 16.592C4.42449 16.7646 4.56429 16.9044 4.73705 16.9044H6.00928L6.64743 18.0129C6.73379 18.1621 6.92424 18.2137 7.07444 18.128C7.22402 18.0419 7.27557 17.851 7.18953 17.7012L6.55102 16.5923L6.77032 16.2133L8.27734 13.6088H11.7202L13.446 16.592L12.805 17.7008C12.7186 17.85 12.7699 18.0413 12.9194 18.1276C13.0685 18.2137 13.26 18.1628 13.3465 18.0132L13.9875 16.9044H15.2635C15.4363 16.9044 15.5761 16.7646 15.5761 16.592C15.5761 16.4193 15.4363 16.2796 15.2635 16.2796H13.9874L12.265 13.2975L13.991 10.3099H17.4337L18.0575 11.3859C18.107 11.4932 18.2156 11.5673 18.342 11.5673C18.5817 11.5673 18.7328 11.3055 18.6124 11.097L17.9747 9.99727L18.6127 8.8917C18.6991 8.74221 18.6475 8.55127 18.4982 8.46491C18.3481 8.3786 18.1576 8.42982 18.0712 8.57931L17.433 9.68515H13.9905L12.2627 6.69711L13.9871 3.71888H15.2665C15.4393 3.71888 15.5791 3.57915 15.5791 3.40649C15.5791 3.23382 15.4393 3.09409 15.2665 3.09409H13.9874L13.3464 1.98523C13.26 1.83547 13.0683 1.78449 12.9194 1.87084C12.7698 1.95715 12.7185 2.14845 12.8049 2.29762L13.4443 3.4039L11.7183 6.38962H8.27569L6.55086 3.40617L7.18909 2.30064C7.27546 2.15115 7.2239 1.96021 7.07464 1.87386C6.92417 1.78755 6.73402 1.83908 6.64762 1.98825L6.00951 3.09409H4.7336C4.56084 3.09409 4.42104 3.23382 4.42104 3.40649C4.42104 3.57915 4.56084 3.71888 4.7336 3.71888H6.007L7.73335 6.70048L6.00673 9.68515H2.56081L1.92595 8.58574C1.83928 8.43597 1.64788 8.38499 1.49893 8.47135C1.34936 8.55766 1.29808 8.74864 1.38448 8.89813L2.01969 9.99789L1.38448 11.1006C1.29812 11.2501 1.34968 11.441 1.49925 11.5271C1.64909 11.6137 1.84018 11.5619 1.92595 11.4124L2.56112 10.3099H6.01014L7.16904 12.3132ZM6.55495 9.99789L8.27702 7.01507H11.7234L13.4447 9.99997L11.7214 12.9838H8.27906L7.71534 12.0096L6.55495 9.99789Z" fill="white"/>
</svg>
