<svg width="28" height="28" viewBox="0 0 28 28" fill="none" xmlns="http://www.w3.org/2000/svg">
<path d="M27.161 17.0684L24.5874 15.0559C24.62 14.7455 24.648 14.3827 24.648 13.9989C24.648 13.615 24.6212 13.2522 24.5874 12.9419L27.1634 10.9282C27.6417 10.5502 27.7724 9.87935 27.4679 9.32055L24.7915 4.69C24.5057 4.16735 23.8792 3.899 23.2434 4.1335L20.2065 5.35265C19.6244 4.93265 19.0142 4.578 18.383 4.2945L17.921 1.07335C17.8452 0.462 17.3132 0 16.6844 0H11.3177C10.6889 0 10.1581 0.462 10.0834 1.064L9.62025 4.29685C9.0089 4.5722 8.4081 4.9222 7.80025 5.355L4.75525 4.13235C4.18469 3.91185 3.50219 4.15915 3.21869 4.6795L0.538897 9.31585C0.222748 9.8502 0.353397 10.5444 0.842248 10.9317L3.4159 12.9442C3.37505 13.3374 3.35525 13.6792 3.35525 14.0001C3.35525 14.3209 3.3751 14.6627 3.4159 15.0571L0.839897 17.0707C0.361545 17.4499 0.232045 18.1207 0.536545 18.6784L3.2129 23.3089C3.49875 23.8304 4.1194 24.101 4.76104 23.8654L7.7979 22.6462C8.3789 23.0651 8.98905 23.4197 9.62025 23.7044L10.0822 26.9244C10.158 27.538 10.6889 28 11.3189 28H16.6855C17.3144 28 17.8464 27.538 17.921 26.936L18.3842 23.7044C18.9955 23.4279 19.5952 23.079 20.2042 22.645L23.2492 23.8676C23.3962 23.9248 23.549 23.954 23.7065 23.954C24.1592 23.954 24.5757 23.7066 24.7857 23.3216L27.4737 18.6666C27.7724 18.1206 27.6417 17.4499 27.161 17.0684ZM14.001 18.6666C11.4274 18.6666 9.3344 16.5736 9.3344 14C9.3344 11.4264 11.4274 9.33335 14.001 9.33335C16.5747 9.33335 18.6677 11.4264 18.6677 14C18.6677 16.5736 16.5747 18.6666 14.001 18.6666Z" fill="white"/>
</svg>
