<svg width="19" height="20" viewBox="0 0 19 20" fill="none" xmlns="http://www.w3.org/2000/svg">
<path d="M8.62659 12.0451L5.82693 13.1101L6.89038 10.3134C6.95181 10.152 6.87051 9.97159 6.70921 9.91022C6.5476 9.84857 6.36706 9.92976 6.30564 10.0912L5.13504 13.1699C4.62531 12.9334 4.05388 13.0483 3.67583 13.426L0.378805 16.7205C-0.126216 17.2254 -0.126216 18.0471 0.37849 18.552C0.88461 19.0589 1.70523 19.0584 2.21124 18.5529L5.50826 15.2584C5.90171 14.8651 5.98438 14.281 5.76492 13.8027L8.84896 12.6293C9.01057 12.568 9.09152 12.3873 9.03013 12.2261C8.96847 12.0646 8.78852 11.9837 8.62659 12.0451ZM5.06592 14.8164L1.7689 18.1108C1.50777 18.3717 1.08377 18.3729 0.821537 18.1102C0.560013 17.8489 0.560013 17.4237 0.821223 17.1624L4.11825 13.8679C4.37687 13.6095 4.79729 13.6044 5.06168 13.8653C5.06333 13.867 5.06423 13.8693 5.06592 13.871C5.06702 13.8721 5.06855 13.8724 5.06961 13.8735C5.32658 14.1352 5.3256 14.5566 5.06592 14.8164ZM9.05189 2.23093C6.45692 4.82366 6.06465 8.65051 8.17754 10.7618C10.4679 13.0502 14.3488 12.2496 16.714 9.8864C19.3078 7.29489 19.6997 3.46989 17.5878 1.35973C15.4749 -0.751597 11.6453 -0.360887 9.05189 2.23093ZM16.2716 9.44441C13.9207 11.7929 10.4887 12.1861 8.61988 10.3198C6.75108 8.45239 7.14334 5.02174 9.49423 2.67289C11.6264 0.543039 15.1175 -0.224411 17.1453 1.80173C19.0132 3.66828 18.6213 7.0965 16.2716 9.44441ZM15.1664 4.22133L16.7943 2.59476C16.9166 2.47265 16.9166 2.27488 16.7943 2.15277C16.6721 2.03065 16.4742 2.03065 16.352 2.15277L14.724 3.77933L13.3232 2.37985L14.0484 1.65521C14.1707 1.5331 14.1707 1.33533 14.0484 1.21321C13.9262 1.0911 13.7283 1.0911 13.6061 1.21321L12.8808 1.93785L12.5047 1.56213C12.3825 1.44002 12.1846 1.44002 12.0623 1.56213C11.9401 1.68425 11.9401 1.88201 12.0623 2.00413L12.4384 2.37985L11.0398 3.77725L10.2867 3.02483C10.1645 2.90272 9.96657 2.90272 9.84435 3.02483C9.72213 3.14694 9.72213 3.34471 9.84435 3.46683L10.5974 4.21925L9.19865 5.61681L8.82273 5.24121C8.70051 5.11909 8.50257 5.11909 8.38035 5.24121C8.25813 5.36332 8.25813 5.56109 8.38035 5.6832L8.75628 6.0588L8.03117 6.78329C7.90895 6.9054 7.90895 7.10317 8.03117 7.22528C8.15335 7.34736 8.35132 7.3474 8.47354 7.22528L9.19865 6.5008L10.5994 7.90032L8.97149 9.52681C8.84928 9.64892 8.84928 9.84669 8.97149 9.9688C9.09368 10.0909 9.29165 10.0909 9.41387 9.9688L11.0418 8.34232L12.4404 9.73972L11.7153 10.4642C11.5931 10.5863 11.5931 10.7841 11.7153 10.9062C11.8375 11.0283 12.0354 11.0283 12.1577 10.9062L12.8828 10.1817L13.2587 10.5573C13.3809 10.6794 13.5788 10.6794 13.7011 10.5573C13.8233 10.4352 13.8233 10.2374 13.7011 10.1153L13.3251 9.73972L14.7239 8.34216L15.477 9.09458C15.5992 9.21666 15.7971 9.2167 15.9194 9.09458C16.0416 8.97247 16.0416 8.7747 15.9194 8.65259L15.1663 7.90017L16.565 6.50264L16.941 6.87821C17.0632 7.00028 17.2611 7.00032 17.3833 6.87821C17.5056 6.75609 17.5056 6.55833 17.3833 6.43621L17.0074 6.06065L17.7326 5.33613C17.8548 5.21401 17.8548 5.01625 17.7326 4.89413C17.6103 4.77202 17.4124 4.77202 17.2902 4.89413L16.565 5.61865L15.1664 4.22133ZM12.8808 2.82184L14.2816 4.22133L12.8829 5.61881L11.4822 4.21929L12.8808 2.82184ZM9.64103 6.0588L11.0398 4.66124L12.4405 6.06077L11.0418 7.45833L9.64103 6.0588ZM12.8828 9.29773L11.4841 7.90032L12.8829 6.50276L14.2815 7.90017L12.8828 9.29773ZM14.7239 7.45821L13.3253 6.06081L14.724 4.66332L16.1226 6.06065L14.7239 7.45821ZM12.5606 14.9009C11.1529 14.9009 10.0078 16.045 10.0078 17.4515C10.0078 18.8569 11.1528 20 12.5606 20C13.9672 20 15.1113 18.8569 15.1113 17.4515C15.1113 16.045 13.9672 14.9009 12.5606 14.9009ZM12.5606 19.3749C11.4981 19.3749 10.6335 18.512 10.6335 17.4515C10.6335 16.3899 11.4981 15.5261 12.5606 15.5261C13.622 15.5261 14.4856 16.3899 14.4856 17.4515C14.4856 18.512 13.622 19.3749 12.5606 19.3749ZM13.6336 18.3651C13.7558 18.4872 13.7558 18.685 13.6336 18.8071C13.5113 18.9292 13.3134 18.9292 13.1912 18.8071C12.4424 18.0593 12.4421 16.8423 13.19 16.0947C13.3122 15.9726 13.5101 15.9726 13.6323 16.0947C13.7546 16.2168 13.7546 16.4146 13.6323 16.5367C13.1283 17.0407 13.1289 17.8609 13.6336 18.3651Z" fill="white"/>
</svg>
