<svg width="19" height="19" viewBox="0 0 19 19" fill="none" xmlns="http://www.w3.org/2000/svg">
<path d="M10.1446 0.427273L4.34933 6.29511H1.42205C0.637888 6.29511 0 6.92271 0 7.69438V11.3054C0 12.0771 0.637888 12.7047 1.42205 12.7047H4.34933L10.1446 18.5725C11.0357 19.4744 12.5867 18.8543 12.5867 17.5973V1.40245C12.5867 0.146391 11.036 -0.474617 10.1446 0.427273ZM4.17527 12.111H1.42205C0.97067 12.111 0.603394 11.7495 0.603394 11.3054V7.69438C0.603394 7.25028 0.97067 6.88881 1.42205 6.88881H4.17527V12.111ZM11.9833 1.40245V17.5973C11.9833 18.3201 11.0894 18.6775 10.5774 18.1585L4.82348 12.3326V6.66718L8.12371 3.3257V9.50005C8.12371 9.66413 8.25881 9.7969 8.42542 9.7969C8.59203 9.7969 8.72714 9.66413 8.72714 9.50005V2.7147L10.5774 0.841279C11.089 0.322712 11.9833 0.6792 11.9833 1.40245ZM13.7302 13.1885C13.7302 13.0244 13.8653 12.8917 14.0319 12.8917C15.9341 12.8917 17.4816 11.3689 17.4816 9.49742C17.4816 7.62855 15.934 6.10812 14.0319 6.10812C13.8653 6.10812 13.7302 5.97535 13.7302 5.81127C13.7302 5.64719 13.8653 5.51442 14.0319 5.51442C16.2668 5.51442 18.085 7.30125 18.085 9.49742C18.085 11.6965 16.2668 13.4853 14.0319 13.4853C13.8652 13.4854 13.7302 13.3526 13.7302 13.1885ZM15.6244 9.49773C15.6244 8.63621 14.91 7.93524 14.0319 7.93524C13.8653 7.93524 13.7302 7.80247 13.7302 7.63839C13.7302 7.47431 13.8653 7.34154 14.0319 7.34154C15.2427 7.34154 16.2278 8.30888 16.2278 9.49769C16.2278 10.6891 15.2427 11.6582 14.0319 11.6582C13.8653 11.6582 13.7302 11.5254 13.7302 11.3613C13.7302 11.1973 13.8653 11.0645 14.0319 11.0645C14.91 11.0645 15.6244 10.3616 15.6244 9.49773Z" fill="white"/>
</svg>
